<mxfile host="app.diagrams.net" modified="2024-04-13T01:18:37.260Z" agent="Mozilla/5.0 (Windows NT 10.0; Win64; x64; rv:124.0) Gecko/20100101 Firefox/124.0" etag="rKXnzT_Ezw0mSglSP0eF" version="24.2.3" type="github">
  <diagram id="C5RBs43oDa-KdzZeNtuy" name="Page-1">
    <mxGraphModel dx="1290" dy="577" grid="1" gridSize="10" guides="1" tooltips="1" connect="1" arrows="1" fold="1" page="1" pageScale="1" pageWidth="827" pageHeight="1169" math="0" shadow="0">
      <root>
        <mxCell id="WIyWlLk6GJQsqaUBKTNV-0" />
        <mxCell id="WIyWlLk6GJQsqaUBKTNV-1" parent="WIyWlLk6GJQsqaUBKTNV-0" />
        <mxCell id="nEtuRUCeHnnsEgfaFvNi-16" style="edgeStyle=orthogonalEdgeStyle;rounded=0;orthogonalLoop=1;jettySize=auto;html=1;exitX=0.5;exitY=1;exitDx=0;exitDy=0;" edge="1" parent="WIyWlLk6GJQsqaUBKTNV-1" source="nEtuRUCeHnnsEgfaFvNi-0" target="nEtuRUCeHnnsEgfaFvNi-1">
          <mxGeometry relative="1" as="geometry" />
        </mxCell>
        <mxCell id="nEtuRUCeHnnsEgfaFvNi-0" value="Program Start" style="ellipse;whiteSpace=wrap;html=1;" vertex="1" parent="WIyWlLk6GJQsqaUBKTNV-1">
          <mxGeometry x="330" y="90" width="130" height="70" as="geometry" />
        </mxCell>
        <mxCell id="nEtuRUCeHnnsEgfaFvNi-22" style="edgeStyle=orthogonalEdgeStyle;rounded=0;orthogonalLoop=1;jettySize=auto;html=1;exitX=0.5;exitY=1;exitDx=0;exitDy=0;entryX=0.5;entryY=0;entryDx=0;entryDy=0;" edge="1" parent="WIyWlLk6GJQsqaUBKTNV-1" source="nEtuRUCeHnnsEgfaFvNi-1" target="nEtuRUCeHnnsEgfaFvNi-3">
          <mxGeometry relative="1" as="geometry" />
        </mxCell>
        <mxCell id="nEtuRUCeHnnsEgfaFvNi-1" value="Display Menu&lt;br&gt;Scene" style="shape=parallelogram;perimeter=parallelogramPerimeter;whiteSpace=wrap;html=1;fixedSize=1;" vertex="1" parent="WIyWlLk6GJQsqaUBKTNV-1">
          <mxGeometry x="340" y="200" width="120" height="60" as="geometry" />
        </mxCell>
        <mxCell id="nEtuRUCeHnnsEgfaFvNi-10" style="edgeStyle=orthogonalEdgeStyle;rounded=0;orthogonalLoop=1;jettySize=auto;html=1;exitX=0;exitY=0.5;exitDx=0;exitDy=0;entryX=0.5;entryY=0;entryDx=0;entryDy=0;entryPerimeter=0;" edge="1" parent="WIyWlLk6GJQsqaUBKTNV-1" source="nEtuRUCeHnnsEgfaFvNi-3" target="nEtuRUCeHnnsEgfaFvNi-17">
          <mxGeometry relative="1" as="geometry">
            <mxPoint x="220" y="400" as="targetPoint" />
          </mxGeometry>
        </mxCell>
        <mxCell id="nEtuRUCeHnnsEgfaFvNi-3" value="User Click" style="rhombus;whiteSpace=wrap;html=1;" vertex="1" parent="WIyWlLk6GJQsqaUBKTNV-1">
          <mxGeometry x="350" y="290" width="80" height="80" as="geometry" />
        </mxCell>
        <mxCell id="nEtuRUCeHnnsEgfaFvNi-9" style="edgeStyle=orthogonalEdgeStyle;rounded=0;orthogonalLoop=1;jettySize=auto;html=1;exitX=0;exitY=0.5;exitDx=0;exitDy=0;" edge="1" parent="WIyWlLk6GJQsqaUBKTNV-1" target="nEtuRUCeHnnsEgfaFvNi-7">
          <mxGeometry relative="1" as="geometry">
            <mxPoint x="170" y="430" as="sourcePoint" />
          </mxGeometry>
        </mxCell>
        <mxCell id="nEtuRUCeHnnsEgfaFvNi-7" value="Program Exit" style="ellipse;whiteSpace=wrap;html=1;" vertex="1" parent="WIyWlLk6GJQsqaUBKTNV-1">
          <mxGeometry x="10" y="620" width="120" height="80" as="geometry" />
        </mxCell>
        <mxCell id="nEtuRUCeHnnsEgfaFvNi-8" value="" style="triangle;whiteSpace=wrap;html=1;" vertex="1" parent="WIyWlLk6GJQsqaUBKTNV-1">
          <mxGeometry x="460" y="110" width="14" height="30" as="geometry" />
        </mxCell>
        <mxCell id="nEtuRUCeHnnsEgfaFvNi-12" style="edgeStyle=orthogonalEdgeStyle;rounded=0;orthogonalLoop=1;jettySize=auto;html=1;exitX=1;exitY=0.5;exitDx=0;exitDy=0;" edge="1" parent="WIyWlLk6GJQsqaUBKTNV-1" source="nEtuRUCeHnnsEgfaFvNi-3" target="nEtuRUCeHnnsEgfaFvNi-20">
          <mxGeometry relative="1" as="geometry">
            <mxPoint x="500" y="410" as="targetPoint" />
          </mxGeometry>
        </mxCell>
        <mxCell id="nEtuRUCeHnnsEgfaFvNi-17" value="Quit" style="strokeWidth=2;html=1;shape=mxgraph.flowchart.display;whiteSpace=wrap;" vertex="1" parent="WIyWlLk6GJQsqaUBKTNV-1">
          <mxGeometry x="170" y="400" width="100" height="60" as="geometry" />
        </mxCell>
        <mxCell id="nEtuRUCeHnnsEgfaFvNi-18" value="Start" style="strokeWidth=2;html=1;shape=mxgraph.flowchart.display;whiteSpace=wrap;" vertex="1" parent="WIyWlLk6GJQsqaUBKTNV-1">
          <mxGeometry x="340" y="420" width="100" height="60" as="geometry" />
        </mxCell>
        <mxCell id="nEtuRUCeHnnsEgfaFvNi-19" style="edgeStyle=orthogonalEdgeStyle;rounded=0;orthogonalLoop=1;jettySize=auto;html=1;exitX=0.5;exitY=1;exitDx=0;exitDy=0;" edge="1" parent="WIyWlLk6GJQsqaUBKTNV-1" source="nEtuRUCeHnnsEgfaFvNi-3" target="nEtuRUCeHnnsEgfaFvNi-18">
          <mxGeometry relative="1" as="geometry" />
        </mxCell>
        <mxCell id="nEtuRUCeHnnsEgfaFvNi-20" value="Tutorial" style="strokeWidth=2;html=1;shape=mxgraph.flowchart.display;whiteSpace=wrap;" vertex="1" parent="WIyWlLk6GJQsqaUBKTNV-1">
          <mxGeometry x="490" y="420" width="100" height="60" as="geometry" />
        </mxCell>
        <mxCell id="nEtuRUCeHnnsEgfaFvNi-23" value="Options" style="swimlane;fontStyle=0;childLayout=stackLayout;horizontal=1;startSize=30;horizontalStack=0;resizeParent=1;resizeParentMax=0;resizeLast=0;collapsible=1;marginBottom=0;whiteSpace=wrap;html=1;" vertex="1" parent="WIyWlLk6GJQsqaUBKTNV-1">
          <mxGeometry x="450" y="620" width="140" height="120" as="geometry" />
        </mxCell>
        <mxCell id="nEtuRUCeHnnsEgfaFvNi-24" value="Environment size" style="text;strokeColor=none;fillColor=none;align=left;verticalAlign=middle;spacingLeft=4;spacingRight=4;overflow=hidden;points=[[0,0.5],[1,0.5]];portConstraint=eastwest;rotatable=0;whiteSpace=wrap;html=1;" vertex="1" parent="nEtuRUCeHnnsEgfaFvNi-23">
          <mxGeometry y="30" width="140" height="30" as="geometry" />
        </mxCell>
        <mxCell id="nEtuRUCeHnnsEgfaFvNi-25" value="Obstacle saturation" style="text;strokeColor=none;fillColor=none;align=left;verticalAlign=middle;spacingLeft=4;spacingRight=4;overflow=hidden;points=[[0,0.5],[1,0.5]];portConstraint=eastwest;rotatable=0;whiteSpace=wrap;html=1;" vertex="1" parent="nEtuRUCeHnnsEgfaFvNi-23">
          <mxGeometry y="60" width="140" height="30" as="geometry" />
        </mxCell>
        <mxCell id="nEtuRUCeHnnsEgfaFvNi-26" value="Start/Stop location" style="text;strokeColor=none;fillColor=none;align=left;verticalAlign=middle;spacingLeft=4;spacingRight=4;overflow=hidden;points=[[0,0.5],[1,0.5]];portConstraint=eastwest;rotatable=0;whiteSpace=wrap;html=1;" vertex="1" parent="nEtuRUCeHnnsEgfaFvNi-23">
          <mxGeometry y="90" width="140" height="30" as="geometry" />
        </mxCell>
        <mxCell id="nEtuRUCeHnnsEgfaFvNi-29" style="edgeStyle=orthogonalEdgeStyle;rounded=0;orthogonalLoop=1;jettySize=auto;html=1;exitX=1;exitY=0.5;exitDx=0;exitDy=0;exitPerimeter=0;entryX=0.5;entryY=0;entryDx=0;entryDy=0;" edge="1" parent="WIyWlLk6GJQsqaUBKTNV-1" source="nEtuRUCeHnnsEgfaFvNi-27" target="nEtuRUCeHnnsEgfaFvNi-23">
          <mxGeometry relative="1" as="geometry" />
        </mxCell>
        <mxCell id="nEtuRUCeHnnsEgfaFvNi-27" value="Simulation Map Generation Scene" style="strokeWidth=2;html=1;shape=mxgraph.flowchart.display;whiteSpace=wrap;" vertex="1" parent="WIyWlLk6GJQsqaUBKTNV-1">
          <mxGeometry x="270" y="560" width="110" height="70" as="geometry" />
        </mxCell>
        <mxCell id="nEtuRUCeHnnsEgfaFvNi-28" style="edgeStyle=orthogonalEdgeStyle;rounded=0;orthogonalLoop=1;jettySize=auto;html=1;exitX=0;exitY=0.5;exitDx=0;exitDy=0;exitPerimeter=0;entryX=0.5;entryY=0.167;entryDx=0;entryDy=0;entryPerimeter=0;" edge="1" parent="WIyWlLk6GJQsqaUBKTNV-1" source="nEtuRUCeHnnsEgfaFvNi-18" target="nEtuRUCeHnnsEgfaFvNi-27">
          <mxGeometry relative="1" as="geometry" />
        </mxCell>
        <mxCell id="nEtuRUCeHnnsEgfaFvNi-30" style="edgeStyle=orthogonalEdgeStyle;rounded=0;orthogonalLoop=1;jettySize=auto;html=1;entryX=0.5;entryY=1;entryDx=0;entryDy=0;entryPerimeter=0;" edge="1" parent="WIyWlLk6GJQsqaUBKTNV-1" source="nEtuRUCeHnnsEgfaFvNi-23" target="nEtuRUCeHnnsEgfaFvNi-27">
          <mxGeometry relative="1" as="geometry" />
        </mxCell>
        <mxCell id="nEtuRUCeHnnsEgfaFvNi-31" value="" style="rhombus;whiteSpace=wrap;html=1;" vertex="1" parent="WIyWlLk6GJQsqaUBKTNV-1">
          <mxGeometry x="285" y="750" width="80" height="80" as="geometry" />
        </mxCell>
      </root>
    </mxGraphModel>
  </diagram>
</mxfile>
